<svg width="438" height="558" viewBox="0 0 438 558" fill="none" xmlns="http://www.w3.org/2000/svg">
<path d="M297.841 392.893C290.837 407.225 279.967 419.315 266.457 427.797C252.947 436.279 237.335 440.817 221.383 440.898C205.375 441.087 189.639 436.759 175.979 428.412C162.319 420.065 151.288 408.036 144.152 393.706L20.461 147.096C9.57137 160.008 2.69406 175.821 0.675519 192.59C-1.34302 209.36 1.58535 226.354 9.10005 241.48L144.152 510.731C151.288 525.061 162.319 537.09 175.979 545.437C189.639 553.784 205.375 558.112 221.383 557.923C237.335 557.842 252.947 553.304 266.457 544.822C279.967 536.34 290.837 524.25 297.841 509.918L429.621 240.667C436.732 225.675 439.398 208.96 437.306 192.5C435.213 176.04 428.449 160.523 417.813 147.787L297.841 392.893Z" fill="#349041"/>
<path d="M47.2899 125.96C59.0938 119.853 72.2314 116.78 85.519 117.017C101.419 116.863 117.038 121.211 130.571 129.558C144.104 137.905 154.999 149.911 161.998 164.189L219.758 278.897L275.059 165.083C282.27 150.753 293.296 138.69 306.923 130.224C320.549 121.757 336.248 117.216 352.29 117.099C365.26 117.351 378.023 120.402 389.706 126.041C400.502 131.238 410.064 138.68 417.753 147.869L429.561 123.724C449.885 80.6172 432.021 29.3603 389.706 9.01606C378.023 3.37681 365.26 0.326431 352.29 0.0735076C336.246 0.194728 320.547 4.74049 306.921 13.2103C293.295 21.6802 282.269 33.7456 275.059 48.0785L219.758 161.892L161.998 47.1843C154.999 32.9068 144.104 20.9009 130.571 12.5536C117.038 4.2064 101.419 -0.141365 85.519 0.0127246C72.2314 -0.224127 59.0938 2.84883 47.2899 8.95503C26.9613 19.267 11.534 37.1982 4.37261 58.8386C-2.78881 80.4789 -1.1036 104.073 9.0606 124.476L20.4216 147.117C27.8473 138.312 36.9896 131.114 47.2899 125.96Z" fill="#349041"/>
</svg>
